<svg version="1.1" id="Layer_1" xmlns:x="ns_extend;" xmlns:i="ns_ai;" xmlns:graph="ns_graphs;" xmlns="http://www.w3.org/2000/svg" xmlns:xlink="http://www.w3.org/1999/xlink" x="0px" y="0px" viewBox="0 0 56.5 44.9" style="enable-background:new 0 0 56.5 44.9;" xml:space="preserve">
 <style type="text/css">
  .st0{fill:#DB1E35;}
 </style>
 <metadata>
  <sfw xmlns="ns_sfw;">
   <slices>
   </slices>
   <sliceSourceBounds bottomLeftOrigin="true" height="44.9" width="56.5" x="128.5" y="-223.1">
   </sliceSourceBounds>
  </sfw>
 </metadata>
 <g>
  <g>
   <path class="st0" d="M17.2,27c-2.5,0-5-1-6.9-2.9c-3.8-3.8-3.8-10,0-13.9c3.8-3.8,10-3.8,13.9,0l2.1,2.1l-2.9,2.9l-2.1-2.1
			c-2.2-2.2-5.9-2.2-8.1,0c-2.2,2.2-2.2,5.9,0,8.1c1.1,1.1,2.5,1.7,4.1,1.7c1.5,0,3-0.6,4.1-1.7l2.9,2.9C22.3,26.1,19.7,27,17.2,27
			 M17.2,34.5c-4.6,0-8.9-1.8-12.2-5c-3.3-3.3-5-7.6-5-12.2C0,12.6,1.8,8.3,5,5c3.3-3.3,7.6-5,12.2-5c4.6,0,8.9,1.8,12.2,5l2.1,2.1
			L28.6,10l-2.1-2.1c-2.5-2.5-5.8-3.9-9.3-3.9c-3.5,0-6.8,1.4-9.3,3.9c-2.5,2.5-3.9,5.8-3.9,9.3s1.4,6.8,3.9,9.3
			c2.5,2.5,5.8,3.9,9.3,3.9c3.5,0,6.8-1.4,9.3-3.9l3.8-3.8l2.9,2.9l-3.8,3.8C26.2,32.7,21.8,34.5,17.2,34.5 M39.3,37.5
			c-2.5,0-5-1-6.9-2.9l-2.1-2.1l2.9-2.9l2.1,2.1c2.2,2.2,5.9,2.2,8.1,0c2.2-2.2,2.2-5.9,0-8.1c-2.2-2.2-5.9-2.2-8.1,0l-2.9-2.9
			c1.9-1.9,4.3-2.9,6.9-2.9c2.6,0,5.1,1,6.9,2.9c3.8,3.8,3.8,10,0,13.9C44.3,36.5,41.8,37.5,39.3,37.5 M39.3,44.9
			c-4.6,0-8.9-1.8-12.2-5l-2.1-2.1l2.9-2.9L30,37c2.5,2.5,5.8,3.9,9.3,3.9c3.5,0,6.8-1.4,9.3-3.9c2.5-2.5,3.9-5.8,3.9-9.3
			c0-3.5-1.4-6.8-3.9-9.3c-5.1-5.1-13.5-5.1-18.6,0l-3.8,3.8l-2.9-2.9l3.8-3.8c6.7-6.7,17.7-6.7,24.4,0c3.3,3.3,5,7.6,5,12.2
			c0,4.6-1.8,8.9-5,12.2C48.2,43.1,43.9,44.9,39.3,44.9">
   </path>
  </g>
 </g>
</svg>